<?xml version="1.0" encoding="utf-8"?>
<!-- Generator: Adobe Illustrator 27.5.0, SVG Export Plug-In . SVG Version: 6.00 Build 0)  -->
<svg version="1.1" xmlns="http://www.w3.org/2000/svg" xmlns:xlink="http://www.w3.org/1999/xlink" x="0px" y="0px"
	 viewBox="0 0 500 500" style="enable-background:new 0 0 500 500;" xml:space="preserve">
<g id="BACKGROUND">
	<g>
		<rect x="0.311" y="0.301" style="fill:#ACE1EA;" width="500" height="500"/>
		<radialGradient id="SVGID_1_" cx="251.2833" cy="185.2836" r="240.6658" gradientUnits="userSpaceOnUse">
			<stop  offset="0" style="stop-color:#FFFFFF"/>
			<stop  offset="1" style="stop-color:#FFFFFF;stop-opacity:0"/>
		</radialGradient>
		<rect x="0.311" y="0.301" style="opacity:0.64;fill:url(#SVGID_1_);" width="500" height="500"/>
	</g>
</g>
<g id="OBJECTS">
	<g>
		<path style="opacity:0.27;" d="M33.838,382.734c0,44.46,98.038,85.153,218.212,82.821C388.668,462.905,469,423.882,469,379.421
			s-97.151-72.883-217.345-72.883S33.838,338.274,33.838,382.734z"/>
		<path style="fill:#B22F5D;" d="M31,378.004c0,44.46,98.038,85.153,218.212,82.822c136.619-2.65,216.95-41.674,216.95-86.134
			s-97.151-72.883-217.344-72.883S31,333.544,31,378.004z"/>
		
			<linearGradient id="SVGID_00000078747759512273337760000011832989770249948071_" gradientUnits="userSpaceOnUse" x1="468.7462" y1="355.2001" x2="47.301" y2="387.8372">
			<stop  offset="0" style="stop-color:#D72F5D"/>
			<stop  offset="0.3311" style="stop-color:#D83360"/>
			<stop  offset="0.6364" style="stop-color:#DA3E68"/>
			<stop  offset="0.9308" style="stop-color:#DD5077"/>
			<stop  offset="1" style="stop-color:#DE567B"/>
		</linearGradient>
		<path style="fill:url(#SVGID_00000078747759512273337760000011832989770249948071_);" d="M31.187,373.035
			c0,44.46,92.785,79.177,212.979,79.177s222.281-34.717,222.281-79.177c0-44.46-97.436-80.503-217.63-80.503
			S31.187,328.575,31.187,373.035z"/>
		<path style="fill:#B22F5D;" d="M38.568,372.985c0,41.14,89.403,73.264,205.216,73.264s214.179-32.124,214.179-73.264
			s-93.885-74.49-209.698-74.49S38.568,331.846,38.568,372.985z"/>
		
			<linearGradient id="SVGID_00000079467682339548549900000002993488131821828263_" gradientUnits="userSpaceOnUse" x1="46.7038" y1="374.2829" x2="451.0259" y2="374.2829">
			<stop  offset="0" style="stop-color:#D72F5D"/>
			<stop  offset="0.3311" style="stop-color:#D83360"/>
			<stop  offset="0.6364" style="stop-color:#DA3E68"/>
			<stop  offset="0.9308" style="stop-color:#DD5077"/>
			<stop  offset="1" style="stop-color:#DE567B"/>
		</linearGradient>
		<path style="fill:url(#SVGID_00000079467682339548549900000002993488131821828263_);" d="M46.704,374.862
			c0,38.852,86.19,69.189,197.84,69.189s206.482-30.337,206.482-69.189s-90.511-70.347-202.161-70.347S46.704,336.01,46.704,374.862
			z"/>
		<polygon style="fill:#914004;" points="96.59,382.087 105.734,404.161 161.549,421.189 223.039,427.18 267.186,424.342 
			295.881,416.459 330.253,403.215 97.22,359.068 		"/>
		<path style="fill:#914004;" d="M69.156,382.087c0,0-1.261-0.631,10.091-3.153c11.352-2.523-1.261-8.199,1.892-19.551
			c3.153-11.352,27.119-15.136,43.516-12.613c16.397,2.523,2.523,30.903,2.523,30.903l-20.812,14.505L69.156,382.087z"/>
		<path style="fill:#FFEDC4;" d="M99.428,355.599c0,0-2.523,7.568,0.631,22.704c3.153,15.136,23.335,27.749,40.363,30.272
			c17.028,2.523,62.436,10.091,86.402,10.091s56.76-3.153,74.419-6.937c17.659-3.784,65.59-16.397,76.311-18.289
			c10.721-1.892,30.903-13.244,35.318-17.028c4.415-3.784,5.676-19.551,1.892-23.335c-3.784-3.784-34.214,2.365-34.214,2.365
			L99.428,355.599z"/>
		
			<linearGradient id="SVGID_00000003079054624438784820000006628714039527141293_" gradientUnits="userSpaceOnUse" x1="98.3649" y1="370.4386" x2="415.1657" y2="370.4386">
			<stop  offset="0" style="stop-color:#F0A82C"/>
			<stop  offset="0.3066" style="stop-color:#EFA42C"/>
			<stop  offset="0.5893" style="stop-color:#EB992C"/>
			<stop  offset="0.8618" style="stop-color:#E6872C"/>
			<stop  offset="1" style="stop-color:#E27A2C"/>
		</linearGradient>
		<path style="fill:url(#SVGID_00000003079054624438784820000006628714039527141293_);" d="M137.11,337.783
			c0,0-23.335,0.631-34.687,11.983c-11.352,11.352,1.261,36.894,35.948,45.724s118.251,11.352,147.261,6.622
			c29.011-4.73,79.149-17.974,91.447-21.443c12.298-3.469,46.985-20.181,35.948-34.687
			C401.991,331.476,137.11,337.783,137.11,337.783z"/>
		<path style="fill:#FFEDC4;" d="M125.127,336.206c0,0-1.419,3.784,6.622,10.879c8.041,7.095,17.028,8.514,25.069,9.46
			c8.041,0.946,20.812,13.244,43.516,15.136s49.665,5.203,96.019,7.568c46.354,2.365,84.667-18.92,95.546-20.812
			c10.879-1.892,26.961-10.879,28.38-17.974c1.419-7.095-0.946-15.136-0.946-15.136L125.127,336.206z"/>
		<path style="fill:#E2952C;" d="M231.711,362.064c0,0,24.596,1.577,47.615,3.784c23.02,2.207,58.022,4.73,101.223-10.406
			c43.201-15.136,49.823-35.633,23.335-42.255c-26.488-6.622-206.544,43.516-206.544,43.516S207.745,362.064,231.711,362.064z"/>
		<path style="opacity:0.18;" d="M119.451,279.604c0,0-5.203,5.676-11.825,11.352c-6.622,5.676,5.676,6.307,8.987,19.078
			c3.311,12.771,0.81,17.968,8.751,25.7c11.983,11.667,29.011,13.323,46.354,19.629c16.543,6.016,41.892,12.407,65.038,11.116
			c36.737-2.05,58.495,2.207,72.685-0.158c14.19-2.365,28.209-10.012,41.309-14.269c18.92-6.149,27.292-13.228,38.786-20.891
			c26.961-17.974,17.028-26.488,17.028-31.691c0-5.203-8.514-0.946-21.758-8.987C371.562,282.442,119.451,279.604,119.451,279.604z"
			/>
		<path style="fill:#FFEDC4;" d="M119.451,278.027c0,0-5.203,5.676-11.825,11.352c-6.622,5.676-11.825,9.933-8.514,22.704
			c3.311,12.771,14.663,17.028,23.177,24.123c8.514,7.095,36.421,25.069,53.922,26.961c17.501,1.892,33.11,4.257,56.287,4.73
			s58.652-2.838,72.842-5.203c14.19-2.365,35.147-10.406,48.246-14.663c18.92-6.149,24.454-10.784,35.948-18.447
			c26.961-17.974,17.028-26.488,17.028-31.691s-8.514-0.946-21.758-8.987C371.562,280.865,119.451,278.027,119.451,278.027z"/>
		
			<linearGradient id="SVGID_00000134972654765098719040000016824610313797291425_" gradientUnits="userSpaceOnUse" x1="97.6607" y1="284.6581" x2="357.3389" y2="331.4854">
			<stop  offset="0" style="stop-color:#F0A82C"/>
			<stop  offset="0.3066" style="stop-color:#EFA42C"/>
			<stop  offset="0.5893" style="stop-color:#EB992C"/>
			<stop  offset="0.8618" style="stop-color:#E6872C"/>
			<stop  offset="1" style="stop-color:#E27A2C"/>
		</linearGradient>
		<path style="fill:url(#SVGID_00000134972654765098719040000016824610313797291425_);" d="M122.289,275.977
			c0,0-20.181,7.568-23.335,22.389c-3.153,14.821,19.866,30.272,35.317,34.056c15.451,3.784,30.272,17.974,55.499,22.704
			c25.227,4.73,60.229,2.838,91.762,1.261s66.22-11.983,85.771-22.073c19.551-10.091,41.624-14.505,40.048-32.795
			c-1.577-18.289-22.073-18.605-22.073-18.605L122.289,275.977z"/>
		<path style="opacity:0.18;" d="M111.095,282.126c0,0,2.207,15.136,30.272,23.335s56.445,9.618,69.374,8.987
			c12.929-0.631,33.583,1.261,53.449,0.946c19.866-0.315,60.071-11.825,67.955-11.825s39.102-7.253,49.823-8.514
			c10.721-1.261,17.028-8.199,14.19-9.775c-2.838-1.577-43.832,6.622-43.832,6.622l-77.572,11.352l-98.384-0.946l-48.246-9.775
			L111.095,282.126"/>
		<path style="fill:#FFEDC4;" d="M107.626,267.384c0,0-0.946,12.771,8.199,20.103c3.843,3.081,27.119,20.812,68.743,20.181
			c41.624-0.631,71.896,4.415,107.845-1.892c35.948-6.307,65.59-10.721,84.51-14.505c18.92-3.784,38.471-15.136,35.318-32.164
			C409.086,242.079,107.626,267.384,107.626,267.384z"/>
		<path style="fill:#E2802C;" d="M124.812,244.444c0,0-17.028,2.523-17.659,18.92c-0.631,16.397,31.534,30.903,66.851,33.426
			s66.851,3.153,104.691-0.631c37.84-3.784,73.788-6.307,102.168-16.397c28.38-10.091,42.255-26.488,19.551-27.749
			C377.711,250.751,124.812,244.444,124.812,244.444z"/>
		<path style="fill:#FFEDC4;" d="M110.937,230.569c0,0-4.257,5.203,2.365,19.393c6.622,14.19,31.218,21.285,41.624,24.596
			c10.406,3.311,42.57,8.514,60.544,14.663c17.974,6.149,35.475,3.311,50.611,0.946c15.136-2.365,42.097-8.041,55.341-9.46
			c13.244-1.419,47.773-3.311,72.369-20.812c24.596-17.501,23.65-32.637,22.231-39.259
			C414.605,214.014,110.937,230.569,110.937,230.569z"/>
		
			<radialGradient id="SVGID_00000139254732474382395970000009063718967290780052_" cx="263.1546" cy="244.2755" r="111.451" gradientUnits="userSpaceOnUse">
			<stop  offset="0" style="stop-color:#F0A82C"/>
			<stop  offset="0.3066" style="stop-color:#EFA42C"/>
			<stop  offset="0.5893" style="stop-color:#EB992C"/>
			<stop  offset="0.8618" style="stop-color:#E6872C"/>
			<stop  offset="1" style="stop-color:#E27A2C"/>
		</radialGradient>
		<path style="fill:url(#SVGID_00000139254732474382395970000009063718967290780052_);" d="M120.397,205.973
			c0,0-17.028,17.028-6.937,39.101c10.091,22.073,42.255,20.181,71.896,30.903c29.641,10.721,78.834,6.307,107.214,1.261
			c28.38-5.045,54.868,1.261,93.97-21.443c39.101-22.704,32.795-46.039,18.289-46.039
			C390.324,209.757,120.397,205.973,120.397,205.973z"/>
		<path style="fill:#FFEDC4;" d="M106.68,203.135c0,0-3.311,9.46,3.784,16.082c7.095,6.622,37.84,18.447,52.03,26.015
			c14.19,7.568,58.652,18.92,106.898,12.298c48.246-6.622,74.261-9.46,87.978-10.879s33.583-4.257,47.3-14.663
			c13.717-10.406,17.501-24.911,17.974-32.479c0.473-7.568-44.935-4.257-44.935-4.257L106.68,203.135"/>
		
			<radialGradient id="SVGID_00000168826544198423075160000000843090497738260382_" cx="264.4564" cy="209.0292" r="115.2745" gradientUnits="userSpaceOnUse">
			<stop  offset="6.800000e-07" style="stop-color:#E27A2C"/>
			<stop  offset="0.2769" style="stop-color:#E4802C"/>
			<stop  offset="0.663" style="stop-color:#E9932C"/>
			<stop  offset="1" style="stop-color:#F0A82C"/>
		</radialGradient>
		<path style="fill:url(#SVGID_00000168826544198423075160000000843090497738260382_);" d="M139.317,168.764
			c0,0-31.533,3.153-32.795,27.749c-1.261,24.596,29.011,27.119,50.453,36.579c21.443,9.46,78.203,18.289,108.475,15.767
			c30.272-2.523,61.806-10.721,93.97-11.983c32.164-1.261,43.516-19.551,53.607-25.857c10.091-6.307,14.505-14.505,0.631-24.596
			C399.784,176.331,139.317,168.764,139.317,168.764z"/>
		<path style="fill:#914004;" d="M108.257,368.213c0,0-4.415-10.721,8.829-11.983c13.244-1.261,22.073,5.045,32.795,6.307
			c10.721,1.261,35.318,7.568,50.454,9.145c15.136,1.577,56.13,5.361,56.13,5.361s7.568,5.676-10.091,7.568
			c-17.659,1.892-71.896,4.415-75.68,13.244c-3.784,8.829,3.153,15.767,7.568,17.659c4.415,1.892,30.903,4.73,40.994,5.361
			c10.091,0.631,51.084-0.946,71.896-5.991c20.812-5.045,49.823-13.244,59.283-14.505c0,0-29.641,9.46-43.516,15.136
			c-13.875,5.676-49.823,18.289-80.095,16.397s-49.823-5.676-66.851-6.937c-17.028-1.261-53.133-9.27-72.527-17.028
			c-18.92-7.568-27.119-16.397-22.073-23.965c5.045-7.568,22.704,0,23.335-5.676c0.631-5.676,9.631-4.275,11.352,6.622
			c0.946,5.991,11.352,21.127,60.544,28.695c0,0,4.415-2.523,3.153-9.46c-1.261-6.937-6.307-4.415-24.596-10.721
			C120.87,387.133,112.041,381.457,108.257,368.213z"/>
		<ellipse style="fill:#6C3200;" cx="229.976" cy="118.468" rx="22.389" ry="3.784"/>
		<path style="opacity:0.18;" d="M175.739,227.968c1.419,0.394,36.894,14.111,80.883,9.854
			c43.989-4.257,66.693-16.555,76.153-17.501c9.46-0.946,48.719-14.19,59.125-16.555c10.406-2.365,24.596-11.352,16.555-19.393
			C400.415,176.331,175.739,227.968,175.739,227.968z"/>
		<g>
			<path style="fill:#FFEDC4;" d="M108.809,188.157c0,0,0.709,7.647,3.548,9.775c2.838,2.128,0,3.784,4.493,6.858
				c4.493,3.075,34.056,17.028,58.889,23.177c24.833,6.149,53.213,10.169,88.924,3.784c35.712-6.385,49.665-13.244,68.349-18.211
				c18.684-4.967,43.516-13.244,57.233-16.555c13.717-3.311,15.609-7.332,17.265-10.17c1.655-2.838,2.128-9.224-0.473-10.643
				c-2.602-1.419-35.239,9.933-35.239,9.933l-126.055,7.331L108.809,188.157z"/>
			
				<radialGradient id="SVGID_00000173867468129710238790000015808761638112176549_" cx="377.2376" cy="78.4198" r="208.7092" gradientUnits="userSpaceOnUse">
				<stop  offset="0" style="stop-color:#F0A82C"/>
				<stop  offset="0.3066" style="stop-color:#EFA42C"/>
				<stop  offset="0.5893" style="stop-color:#EB992C"/>
				<stop  offset="0.8618" style="stop-color:#E6872C"/>
				<stop  offset="1" style="stop-color:#E27A2C"/>
			</radialGradient>
			<path style="fill:url(#SVGID_00000173867468129710238790000015808761638112176549_);" d="M118.032,161.511
				c0,0-7.095,3.311-8.987,16.082c-1.892,12.771,0.473,17.974,13.244,22.231c12.771,4.257,36.421,17.974,68.112,23.177
				c31.691,5.203,59.598,1.892,103.115-7.095c43.516-8.987,76.626-23.65,91.762-26.488c15.136-2.838,24.596-9.933,21.285-14.663
				c-3.311-4.73-28.38-4.73-28.38-4.73L118.032,161.511z"/>
		</g>
		<path style="fill:#914004;" d="M129.148,171.838c0,0-22.152,5.913-20.26,15.373c1.892,9.46,28.38,18.289,33.426,20.181
			c5.045,1.892,6.307,11.352,1.892,11.352s-17.659-6.307-18.289-0.631c-0.631,5.676,21.758,9.775,31.06,14.978
			c9.302,5.203,16.24,15.924,8.672,15.294c-7.568-0.631-35.396-3.784-32.243,6.937c3.153,10.721,18.368,7.568,37.288,16.397
			s3.153,11.983-8.199,9.46c-18.204-4.045-30.272,8.199-4.415,12.613c25.857,4.415,30.903,6.937,28.38,14.505
			c-2.523,7.568-27.749,5.676-35.318,8.829c-7.568,3.153-6.937,14.505,11.352,20.181c18.289,5.676,25.227-2.523,37.21,2.523
			c11.983,5.045,28.38,6.307,34.056-2.523c5.676-8.829-15.767-18.289-24.596-22.704c-8.829-4.415-21.443-7.568-13.244-13.244
			c8.199-5.676,20.812,0,20.181-6.937c-0.631-6.937-20.181-6.307-25.227-11.352c-5.045-5.045-3.153-11.352,13.875-10.091
			c17.028,1.261,20.26-7.647,9.539-12.692c-10.721-5.045-29.72-4.336-34.135-9.381c-4.415-5.045-9.46-16.397-1.892-16.397
			c7.568,0,18.526,10.445,22.547,4.493c3.13-4.634-16.87-8.751-25.069-11.037c-8.199-2.286-21.876-6.819-21.876-6.819
			s-7.134-3.666-1.458-13.757c5.676-10.091,22.073,0.631,40.993-6.307c18.92-6.937,0.631-20.378-21.443-22.27
			C149.881,176.923,129.148,171.838,129.148,171.838z"/>
		<path style="opacity:0.18;" d="M113.775,164.507l-3.311,6.622c0,0,17.974,14.19,63.855,13.717
			c45.881-0.473,58.179,2.365,70.477-2.365c12.298-4.73,51.557-0.946,60.071-0.946c8.514,0,52.03-2.838,65.747-7.568
			C384.333,169.236,113.775,164.507,113.775,164.507z"/>
		<g>
			<path style="fill:#FFEDC4;" d="M96.747,129.347c0,0,0,3.311,0.946,5.44c0.946,2.129-1.892,5.439-1.892,10.879
				c0,5.439,5.203,13.008,23.65,22.231c18.447,9.224,45.881,11.116,80.41,12.298c34.529,1.183,26.015-2.602,73.315-4.257
				c47.3-1.656,34.766,5.44,84.904-0.236c50.138-5.676,51.084-13.008,52.267-14.9s2.602-9.224,1.656-11.589
				c-0.946-2.365-19.63-5.676-19.63-5.676L96.747,129.347z"/>
			
				<linearGradient id="SVGID_00000025439651641016289180000002338227947892218253_" gradientUnits="userSpaceOnUse" x1="96.8007" y1="126.4657" x2="411.784" y2="126.4657">
				<stop  offset="0" style="stop-color:#F0A82C"/>
				<stop  offset="0.3066" style="stop-color:#EFA42C"/>
				<stop  offset="0.5893" style="stop-color:#EB992C"/>
				<stop  offset="0.8618" style="stop-color:#E6872C"/>
				<stop  offset="1" style="stop-color:#E27A2C"/>
			</linearGradient>
			<path style="fill:url(#SVGID_00000025439651641016289180000002338227947892218253_);" d="M100.531,137.23
				c0,0,1.577-1.892-2.207-5.045c-3.784-3.153-0.631-11.352,10.721-19.866c11.352-8.514,58.022-27.75,138.117-24.281
				c80.095,3.469,136.54,30.587,146.631,37.84c10.091,7.253,17.659,12.929,17.343,20.812c0,0,3.784,5.676-6.937,6.937
				c-10.721,1.261-29.642,4.415-47.3,6.937c-17.659,2.523-67.166,5.045-95.862,2.523c-28.695-2.523-51.4,4.73-90.816,1.261
				s-61.881-8.178-69.689-17.659C96.117,141.329,100.531,137.23,100.531,137.23z"/>
		</g>
		<path style="fill:#914004;" d="M223.039,108.689c0,0-45.881-0.467-42.097,8.397s18.447,2.333,24.123,13.529
			c5.676,11.196-37.367,6.998-52.976,6.531c-15.609-0.466-26.488,9.859-22.586,19.792c5.208,13.256,13.292,11.106,7.765,17.028
			c-0.552,0.591,4.415,1.261,4.415,1.261s2.602-1.616-0.473-9.624c-3.576-9.315,17.028-13.063,35.475-10.263
			c18.447,2.799,75.207,3.266,92.235,4.199c17.028,0.933,41.151,2.799,46.354-3.266c5.203-6.065-12.771-1.866-10.879-10.73
			c1.892-8.864,23.177-2.333,48.719-5.598c25.542-3.266,14.663-16.795,0-20.527c-14.663-3.732,18.92-3.266,35.002,4.199
			c16.082,7.464,6.149-5.598-12.771-11.663c-18.92-6.065-62.436-2.799-90.816-0.933
			C256.149,112.888,248.108,109.156,223.039,108.689z"/>
		<path style="opacity:0.18;" d="M404.672,231.988c-13.717,10.406-33.583,13.244-47.3,14.663s-39.732,4.257-87.978,10.879
			c-48.246,6.622-92.708-4.73-106.898-12.298c-12.886-6.872-39.421-17.255-49.503-24.064c-0.722,0.064-1.108,0.099-1.108,0.099
			s-0.946,2.523-0.946,9.302c0,6.78,22.704,9.618,35.948,15.294c13.244,5.676,44.935,15.767,68.585,18.289
			c23.65,2.523,58.179,0.631,78.518-2.68c20.339-3.311,57.233-9.933,67.166-8.987c9.933,0.946,54.868-5.045,54.868-31.849
			c0-0.309-0.054-0.609-0.134-0.904C413.22,224.005,409.586,228.26,404.672,231.988z"/>
		<path style="opacity:0.18;" d="M154.927,274.558c-10.406-3.311-35.002-10.406-41.624-24.596c0,0-3.784,2.05-5.676,8.199
			c0,0,15.136,13.244,30.745,17.028s28.853,8.987,39.732,5.676c0.579-0.176,0.899-0.425,1.012-0.731
			C168.818,277.946,159.639,276.058,154.927,274.558z"/>
		<path style="fill:#D72F5D;" d="M162.022,136.836c0,1.698-1.376,3.075-3.074,3.075s-3.075-1.376-3.075-3.075
			c0-1.698,1.377-3.074,3.075-3.074S162.022,135.138,162.022,136.836z"/>
		<circle style="fill:#F6605D;" cx="184.726" cy="144.64" r="3.074"/>
		<path style="fill:#D72F5D;" d="M194.895,138.964c0,1.698-1.377,3.074-3.075,3.074s-3.074-1.376-3.074-3.074
			c0-1.698,1.376-3.075,3.074-3.075S194.895,137.266,194.895,138.964z"/>
		<circle style="fill:#D72F5D;" cx="356.189" cy="132.106" r="3.075"/>
		<circle style="fill:#D72F5D;" cx="377.001" cy="113.028" r="3.074"/>
		<circle style="fill:#D72F5D;" cx="181.415" cy="195.725" r="3.074"/>
		<path style="fill:#D72F5D;" d="M149.487,377.121c0,1.698-1.377,3.075-3.075,3.075s-3.074-1.377-3.074-3.075
			s1.376-3.075,3.074-3.075S149.487,375.423,149.487,377.121z"/>
		<circle style="fill:#F6605D;" cx="229.661" cy="145.586" r="3.074"/>
		<path style="fill:#F6605D;" d="M193.949,379.486c0,1.698-1.376,3.074-3.074,3.074s-3.074-1.376-3.074-3.074
			c0-1.698,1.376-3.075,3.074-3.075S193.949,377.788,193.949,379.486z"/>
		<circle style="fill:#F6605D;" cx="198.443" cy="327.219" r="3.074"/>
		<circle style="fill:#F6605D;" cx="165.333" cy="261.235" r="3.074"/>
		<circle style="fill:#F6605D;" cx="310.781" cy="151.499" r="3.074"/>
		<circle style="fill:#F6605D;" cx="120.87" cy="187.211" r="3.074"/>
		<path style="fill:#F6605D;" d="M198.679,110.111c0,1.698-1.376,3.075-3.074,3.075c-1.698,0-3.075-1.377-3.075-3.075
			s1.376-3.075,3.075-3.075C197.303,107.037,198.679,108.413,198.679,110.111z"/>
		<path style="fill:#F6605D;" d="M347.476,125.935c0.935,0.935,0.935,2.451,0,3.386c-0.935,0.935-2.451,0.935-3.386,0
			c-0.935-0.935-0.935-2.451,0-3.386C345.025,125,346.541,125,347.476,125.935z"/>
		<path style="fill:#F6605D;" d="M362.297,107.646c0.935,0.935,0.935,2.451,0,3.386c-0.935,0.935-2.451,0.935-3.386,0
			c-0.935-0.935-0.935-2.451,0-3.386C359.846,106.711,361.362,106.711,362.297,107.646z"/>
		<path style="fill:#F6605D;" d="M207.193,139.319c0,0.98-0.794,1.774-1.774,1.774c-0.98,0-1.774-0.794-1.774-1.774
			c0-0.98,0.794-1.774,1.774-1.774C206.399,137.545,207.193,138.339,207.193,139.319z"/>
		<path style="fill:#F6605D;" d="M219.137,154.692c0,0.98-0.794,1.774-1.774,1.774c-0.98,0-1.774-0.794-1.774-1.774
			s0.794-1.774,1.774-1.774C218.342,152.918,219.137,153.712,219.137,154.692z"/>
		<path style="fill:#F6605D;" d="M137.898,195.725c0,0.98-0.794,1.774-1.774,1.774s-1.774-0.794-1.774-1.774
			s0.794-1.774,1.774-1.774S137.898,194.745,137.898,195.725z"/>
		<path style="fill:#F6605D;" d="M153.862,256.387c0,0.98-0.794,1.774-1.774,1.774c-0.98,0-1.774-0.794-1.774-1.774
			c0-0.98,0.794-1.774,1.774-1.774C153.068,254.613,153.862,255.408,153.862,256.387z"/>
		<path style="fill:#F6605D;" d="M194.067,193.36c0,0.98-0.794,1.774-1.774,1.774c-0.98,0-1.774-0.794-1.774-1.774
			s0.794-1.774,1.774-1.774C193.273,191.586,194.067,192.38,194.067,193.36z"/>
		<path style="fill:#F6605D;" d="M301.202,150.316c0,0.98-0.794,1.774-1.774,1.774c-0.98,0-1.774-0.794-1.774-1.774
			s0.794-1.774,1.774-1.774C300.408,148.543,301.202,149.337,301.202,150.316z"/>
		<path style="fill:#F6605D;" d="M147.24,143.813c0,0.98-0.794,1.774-1.774,1.774s-1.774-0.794-1.774-1.774
			c0-0.98,0.794-1.774,1.774-1.774S147.24,142.833,147.24,143.813z"/>
		<path style="fill:#F6605D;" d="M192.175,115.433c0,0.98-0.794,1.774-1.774,1.774c-0.98,0-1.774-0.794-1.774-1.774
			s0.794-1.774,1.774-1.774C191.381,113.659,192.175,114.453,192.175,115.433z"/>
		<path style="fill:#F6605D;" d="M220.437,130.45c0,0.98-0.794,1.774-1.774,1.774c-0.98,0-1.774-0.794-1.774-1.774
			s0.794-1.774,1.774-1.774C219.643,128.677,220.437,129.471,220.437,130.45z"/>
		<path style="fill:#F6605D;" d="M170.89,385.99c0,0.98-0.794,1.774-1.774,1.774c-0.98,0-1.774-0.794-1.774-1.774
			c0-0.98,0.794-1.774,1.774-1.774C170.096,384.216,170.89,385.01,170.89,385.99z"/>
		<path style="fill:#F6605D;" d="M370.655,110.269c0,0.98-0.794,1.774-1.774,1.774c-0.98,0-1.774-0.794-1.774-1.774
			s0.794-1.774,1.774-1.774C369.861,108.495,370.655,109.289,370.655,110.269z"/>
		<path style="fill:#F6605D;" d="M344.364,136.599c0,0.98-0.794,1.774-1.774,1.774c-0.98,0-1.774-0.794-1.774-1.774
			c0-0.98,0.794-1.774,1.774-1.774C343.57,134.826,344.364,135.62,344.364,136.599z"/>
		<path style="opacity:0.19;" d="M405.933,410.941c0,2.264-10.024,4.099-22.389,4.099c-12.365,0-22.389-1.835-22.389-4.099
			c0-2.264,10.024-4.099,22.389-4.099C395.909,406.841,405.933,408.677,405.933,410.941z"/>
		<path style="opacity:0.19;" d="M303.765,434.591c0,2.264-10.024,4.099-22.389,4.099s-22.389-1.835-22.389-4.099
			s10.024-4.099,22.389-4.099S303.765,432.327,303.765,434.591z"/>
		<path style="opacity:0.19;" d="M255.518,435.537c0,2.264-10.024,4.099-22.389,4.099s-22.389-1.835-22.389-4.099
			c0-2.264,10.024-4.099,22.389-4.099S255.518,433.273,255.518,435.537z"/>
		<path style="fill:#914004;" d="M151.379,331.713c0,0,2.838,3.074,6.859,5.203c4.021,2.129,3.311,9.933,2.128,14.663
			c-1.182,4.73-6.385,5.203-12.771,4.966c-6.385-0.236-30.036-2.838-35.948,1.183c-5.913,4.021,45.645,20.339,45.645,20.339
			l32.874-7.805c0,0-17.738-3.784-20.339-11.352c-2.602-7.568-2.365-11.116-0.71-14.19s6.622-5.676,11.352-5.676
			C185.199,339.044,151.379,331.713,151.379,331.713z"/>
		<g>
			<g>
				<path style="fill:#343057;" d="M375.661,376.884c0,0,3.626-2.207,4.888-2.365c1.261-0.158,3.311,3.311,3.311,3.311
					s0.473-1.577,1.419-3.153c0.946-1.577,4.415,2.523,4.415,2.523s0.315-2.996,0.788-3.153c0.473-0.158,4.415,3.784,4.415,3.784
					l-3.784,4.888c0,0-12.14,0.946-12.771,0.473C377.711,382.718,375.661,376.884,375.661,376.884z"/>
				<path style="fill:#605A8F;" d="M376.742,375.325c0,0-20.484,2.983-14.717,22.473c5.767,19.49,35.002,16.705,42.161,8.353
					c7.159-8.353,11.336-22.87-10.54-30.229c0,0-2.188,1.392-2.188,3.779c0,0-1.591-1.989-3.977-2.983c0,0-2.386,1.79-3.182,3.779
					c0,0,0.597-2.188-3.182-3.978c0,0-2.784,0.994-3.58,2.983L376.742,375.325z"/>
				<path style="opacity:0.45;fill:#343057;" d="M398.365,397.539c-5.781,13.541-23.159,12.252-31.878,8.037
					c10.202,10.655,31.699,7.574,37.7,0.574c7.045-8.219,11.183-22.404-9.533-29.866l-0.073,0.285l-0.935-0.648
					C393.646,375.922,404.356,383.507,398.365,397.539z"/>
			</g>
			<path style="opacity:0.16;fill:#E0E6FF;" d="M365.885,388.237c0,0,1.182-4.257,4.493-5.676c3.311-1.419,7.095,0.237,7.568,4.493
				c0.473,4.257-0.473,8.278-3.784,11.352C370.852,401.481,362.811,397.933,365.885,388.237z"/>
		</g>
		<ellipse style="opacity:0.19;" cx="229.661" cy="121.227" rx="15.609" ry="3.075"/>
		<path style="opacity:0.19;" d="M346.965,115.078c0,1.698-6.988,3.075-15.609,3.075c-8.621,0-15.609-1.376-15.609-3.075
			c0-1.698,6.988-3.075,15.609-3.075C339.977,112.003,346.965,113.38,346.965,115.078z"/>
		<ellipse style="opacity:0.19;" cx="272.468" cy="153.154" rx="19.157" ry="3.784"/>
		<ellipse style="opacity:0.19;" cx="155.163" cy="110.111" rx="19.157" ry="3.784"/>
		<ellipse style="opacity:0.19;" cx="288.313" cy="112.003" rx="14.663" ry="1.419"/>
		<g>
			<g>
				<path style="fill:#343057;" d="M223.985,82.992c0,0-3.39-0.394-4.178-0.394c-0.788,0-0.315,4.336-0.315,4.336
					s-3.863-0.709-4.494-0.552c-0.631,0.158-0.867,4.73-0.867,4.73s-2.602-0.552-4.257-2.68c0,0,0,4.493,0.315,5.991
					c0.315,1.498,6.307,2.05,6.701,1.734c0.394-0.315,10.012-7.962,10.012-8.199C226.902,87.723,223.985,82.992,223.985,82.992z"/>
				<path style="fill:#605A8F;" d="M209.874,88.432c0,0,0.237,3.548-3.311,9.46c-3.548,5.912-2.838,16.082,5.44,21.758
					c8.277,5.676,25.306,3.075,34.056-6.622c8.751-9.697,4.967-23.414-2.602-28.144c-7.568-4.73-16.555-1.183-19.866-3.311
					c0,0-0.867,2.601-0.867,4.099c0,1.498-2.523,0.237-4.493,0.237c0,0-1.025,3.153-1.104,4.572
					c-0.079,1.419-3.39-0.631-4.336-0.788s-0.158,1.183-1.182,3.075C210.583,94.66,209.874,88.432,209.874,88.432z"/>
			</g>
			<path style="opacity:0.45;fill:#343057;" d="M243.457,84.884c-5.047-3.155-10.717-2.63-14.922-2.56l-0.293,0.195
				c20.339,2.365,18.053,30.903-1.577,35.475c-12.461,2.903-18.132-2.207-20.667-5.517c1.188,2.687,3.131,5.202,6.003,7.172
				c8.278,5.676,25.306,3.075,34.056-6.622C254.809,103.331,251.025,89.615,243.457,84.884z"/>
		</g>
		<g>
			<path style="fill:#343057;" d="M273.177,76.528c0,0,3.626-2.207,4.888-2.365c1.261-0.158,3.311,3.311,3.311,3.311
				s0.473-1.577,1.419-3.153c0.946-1.577,4.415,2.523,4.415,2.523s0.315-2.996,0.788-3.153c0.473-0.158,4.415,3.784,4.415,3.784
				l-3.784,4.888c0,0-12.14,0.946-12.771,0.473C275.227,82.362,273.177,76.528,273.177,76.528z"/>
			<path style="fill:#605A8F;" d="M274.258,74.968c0,0-20.484,2.983-14.717,22.473c5.767,19.49,35.002,16.705,42.161,8.353
				c7.159-8.353,11.336-22.87-10.54-30.229c0,0-2.188,1.392-2.188,3.779c0,0-1.591-1.989-3.977-2.983c0,0-2.386,1.79-3.182,3.779
				c0,0,0.597-2.188-3.182-3.978c0,0-2.784,0.994-3.58,2.983L274.258,74.968z"/>
			<path style="opacity:0.45;fill:#343057;" d="M295.881,97.183c-5.781,13.541-23.159,12.252-31.878,8.037
				c10.202,10.655,31.699,7.574,37.7,0.574c7.045-8.22,11.183-22.404-9.533-29.867l-0.073,0.285l-0.935-0.648
				C291.163,75.565,301.873,83.15,295.881,97.183z"/>
		</g>
		<circle style="fill:#D72F5D;" cx="158.474" cy="284.176" r="3.074"/>
		<circle style="fill:#F6605D;" cx="182.124" cy="287.96" r="3.074"/>
		<circle style="fill:#F6605D;" cx="124.418" cy="366.951" r="3.074"/>
		<path style="fill:#F6605D;" d="M190.402,286.541c0,0.98-0.794,1.774-1.774,1.774c-0.98,0-1.774-0.794-1.774-1.774
			c0-0.98,0.794-1.774,1.774-1.774C189.608,284.767,190.402,285.561,190.402,286.541z"/>
		<path style="fill:#F6605D;" d="M161.43,375.584c0,0.98-0.794,1.774-1.774,1.774s-1.774-0.794-1.774-1.774
			c0-0.98,0.794-1.774,1.774-1.774S161.43,374.604,161.43,375.584z"/>
		<path style="fill:#F6605D;" d="M218.191,325.445c0,0.98-0.794,1.774-1.774,1.774c-0.98,0-1.774-0.794-1.774-1.774
			c0-0.98,0.794-1.774,1.774-1.774C217.396,323.672,218.191,324.466,218.191,325.445z"/>
		<path style="fill:#F6605D;" d="M171.009,320.597c0,0.98-0.794,1.774-1.774,1.774s-1.774-0.794-1.774-1.774
			c0-0.98,0.794-1.774,1.774-1.774S171.009,319.618,171.009,320.597z"/>
		<g>
			<path style="opacity:0.16;fill:#E0E6FF;" d="M217.836,107.746c0,3.135-2.224,5.676-4.967,5.676c-2.743,0-4.966-2.541-4.966-5.676
				c0-3.135,2.224-5.676,4.966-5.676C215.612,102.07,217.836,104.611,217.836,107.746z"/>
			<path style="opacity:0.16;fill:#E0E6FF;" d="M214.131,98.05c0,0.958-0.777,1.734-1.734,1.734c-0.958,0-1.734-0.776-1.734-1.734
				c0-0.958,0.776-1.734,1.734-1.734C213.354,96.315,214.131,97.092,214.131,98.05z"/>
		</g>
		<path style="opacity:0.16;fill:#E0E6FF;" d="M260.958,89.063c0,0,1.025-5.439,4.021-7.726s7.726-2.68,7.647,2.838
			c-0.079,5.518-1.734,8.514-0.631,13.244c1.104,4.73-4.572,6.07-7.095,3.784C262.377,98.917,260.012,95.369,260.958,89.063z"/>
		<g>
			<g>
				<g>
					<path style="fill:#343057;" d="M317.482,80.312c0,0,3.311-2.365,4.257-2.207c0.946,0.158,2.523,1.104,3.784,2.838
						c0,0,2.68-3.626,3.626-3.626c0.946,0,3.153,3.311,3.153,3.311l0.473-2.523c0,0,2.05,1.104,2.68,3.469
						c0.631,2.365-3.311,5.518-3.311,5.518s-8.672,3.469-9.302,3.153C322.212,89.93,317.482,80.312,317.482,80.312z"/>
					<path style="fill:#605A8F;" d="M318.123,78.925c0,0-20.484,2.983-14.717,22.473c5.767,19.49,35.002,16.705,42.161,8.353
						c7.159-8.353,11.336-22.87-10.54-30.229c0,0-2.188,1.392-2.188,3.779c0,0-1.591-1.989-3.977-2.983c0,0-2.387,1.79-3.182,3.779
						c0,0,0.597-2.188-3.182-3.978c0,0-2.784,0.994-3.58,2.983L318.123,78.925z"/>
				</g>
				<path style="opacity:0.45;fill:#343057;" d="M346.279,85.599c2.082,7.107-0.782,19.329-13.74,24.276
					c-10.595,4.045-21.658,0.089-25.399-1.518c9.866,11.618,32.28,8.566,38.428,1.394
					C351.075,103.325,354.803,93.255,346.279,85.599z"/>
			</g>
			<path style="opacity:0.16;fill:#E0E6FF;" d="M308.566,85.703c0,0,2.115-1.534,4.371-1.044c2.256,0.49,4.306,3.057,2.094,6.518
				c-2.212,3.461-5.704,9.524-8.63,7.317c-2.926-2.207-2.704-4.57-1.371-8.144C305.999,87.753,308.566,85.703,308.566,85.703z"/>
		</g>
		<g>
			<path style="fill:#605A8F;" d="M306.997,103.489c0,0-12.062-1.182-17.265,8.514c-5.203,9.697-2.601,21.522,6.859,26.252
				c9.46,4.73,21.995,5.439,29.563-4.021C333.721,124.774,336.323,105.618,306.997,103.489z"/>
			<path style="fill:#343057;" d="M304.238,103.568c0,0,2.917,2.05,3.311,3.863c0,0,2.444-1.498,4.257-1.183
				c1.813,0.315,2.759,3.153,2.759,3.153s3.074-2.996,4.493-1.971c1.419,1.025,2.444,2.759,2.207,2.68
				c-0.236-0.079,0.315-2.838,1.498-2.523c0,0-1.025-4.099-2.838-3.863c-1.813,0.236-3.153,1.419-3.153,1.419
				s-0.394-2.129-1.734-3.075c-1.34-0.946-4.178,1.813-4.178,1.813s-0.946-1.813-2.523-2.602
				C306.76,100.493,304.238,103.568,304.238,103.568z"/>
			<path style="opacity:0.45;fill:#343057;" d="M328.782,112.794c0.233,1.505,1.637,13.394-10.827,20.179
				c-13.323,7.253-27.04-3.626-28.617-6.386c-0.432-0.757-1.159-0.963-1.98-0.88c1.249,5.37,4.402,10.132,9.233,12.547
				c9.46,4.73,21.995,5.439,29.563-4.021C330.632,128.637,333.367,119.645,328.782,112.794z"/>
		</g>
		<g>
			<g>
				<path style="fill:#605A8F;" d="M266.373,114.682c0,0-15.512-0.796-20.683,11.932c-5.171,12.728,0.398,27.842,22.473,28.041
					c22.075,0.199,25.853-13.523,25.456-22.075C293.221,124.029,285.465,113.887,266.373,114.682z"/>
				<path style="fill:#343057;" d="M262.613,122.252c0,0-0.158-4.257,1.892-2.996c2.05,1.261,2.838,2.207,2.838,2.207
					s0.788-1.892,2.05-2.207c1.261-0.315,1.577,3.784,1.577,3.784s3.153-1.734,4.257-0.788s-1.419,2.996-1.419,2.996
					s1.734,0.788,0.315,1.892c-1.419,1.104-0.315,3.784-3.469,3.784c-3.153,0-2.838-2.996-2.838-2.996s-2.365,2.68-3.942,1.577
					c-1.577-1.104-1.104-3.311-1.104-3.311s-2.05,0-2.996-1.734C258.829,122.725,262.613,122.252,262.613,122.252z"/>
				<path style="opacity:0.45;fill:#343057;" d="M293.619,132.581c-0.057-1.231-0.273-2.496-0.647-3.756
					c0.234,6.268-2.504,17.961-19.322,21.649c-16.38,3.592-26.209-5.121-27.824-6.695c3.144,6.198,10.269,10.768,22.337,10.877
					C290.238,154.855,294.016,141.133,293.619,132.581z"/>
			</g>
			<path style="opacity:0.16;fill:#E0E6FF;" d="M247.635,130.372c0,0,1.025-3.153,3.705-4.336c2.68-1.182,6.701-0.079,7.016,5.124
				c0.315,5.203,1.261,14.032-3.39,13.954c-4.651-0.079-6.188-2.669-7.489-7.332C246.531,134.392,247.635,130.372,247.635,130.372z"
				/>
		</g>
		<g>
			<ellipse style="opacity:0.19;" cx="327.101" cy="331.843" rx="17.3" ry="3.417"/>
			<g>
				<g>
					<path style="fill:#605A8F;" d="M327.578,296.672c0,0-14.009-0.718-18.679,10.776c-4.67,11.495,0.359,25.144,20.295,25.324
						c19.936,0.18,23.348-12.213,22.989-19.936C351.824,305.113,344.819,295.953,327.578,296.672z"/>
					<path style="fill:#343057;" d="M324.182,303.507c0,0-0.142-3.844,1.709-2.705c1.851,1.139,2.563,1.993,2.563,1.993
						s0.712-1.709,1.851-1.993c1.139-0.285,1.424,3.417,1.424,3.417s2.848-1.566,3.845-0.712c0.997,0.854-1.282,2.705-1.282,2.705
						s1.566,0.712,0.285,1.709c-1.281,0.997-0.285,3.417-3.133,3.417c-2.848,0-2.563-2.705-2.563-2.705s-2.136,2.421-3.56,1.424
						c-1.424-0.997-0.997-2.99-0.997-2.99s-1.851,0-2.705-1.566C320.765,303.935,324.182,303.507,324.182,303.507z"/>
					<path style="opacity:0.45;fill:#343057;" d="M352.183,312.836c-0.052-1.112-0.246-2.254-0.584-3.392
						c0.211,5.661-2.262,16.22-17.449,19.551c-14.793,3.244-23.67-4.625-25.128-6.046c2.839,5.597,9.274,9.725,20.173,9.823
						C349.13,332.951,352.542,320.559,352.183,312.836z"/>
				</g>
				<path style="opacity:0.16;fill:#E0E6FF;" d="M310.655,310.84c0,0,0.926-2.848,3.346-3.916c2.421-1.068,6.052-0.071,6.336,4.628
					c0.285,4.699,1.139,12.673-3.061,12.602s-5.589-2.411-6.763-6.621C309.658,314.471,310.655,310.84,310.655,310.84z"/>
			</g>
		</g>
		<g>
			<path style="opacity:0.16;fill:#E0E6FF;" d="M299.55,118.456c-1.234,2.882-4.279,4.342-6.8,3.262s-3.565-4.291-2.33-7.173
				c1.234-2.882,4.279-4.342,6.8-3.262C299.741,112.363,300.784,115.575,299.55,118.456z"/>
			<path style="opacity:0.16;fill:#E0E6FF;" d="M301.381,109.03c-0.377,0.881-1.397,1.289-2.277,0.911
				c-0.88-0.377-1.289-1.397-0.911-2.277c0.377-0.88,1.397-1.288,2.277-0.911C301.35,107.13,301.758,108.15,301.381,109.03z"/>
		</g>
		<g>
			<g>
				<path style="fill:#343057;" d="M262.062,405.738c0,0,3.784-6.149,5.676-6.149c1.892,0,3.548,0.946,3.548,0.946
					s1.419-3.311,3.311-3.311s5.439,2.128,5.439,2.128l-0.71,8.987L262.062,405.738z"/>
				<path style="fill:#605A8F;" d="M263.349,401.457c0,0-19.064,8.065-8.557,25.463c10.508,17.398,38.088,7.313,42.903-2.578
					c4.815-9.891,5.185-24.993-17.84-26.582c0,0-1.765,1.9-1.161,4.209c0,0-2.042-1.522-4.602-1.881c0,0-1.857,2.335-2.123,4.46
					c0,0,0.024-2.267-4.084-3.044c0,0-2.442,1.666-2.709,3.791L263.349,401.457z"/>
			</g>
			<path style="opacity:0.16;fill:#E0E6FF;" d="M258.61,416.085c0,0,0.94-3.384,3.572-4.512c2.632-1.128,5.64,0.188,6.016,3.572
				c0.376,3.384-0.376,6.58-3.008,9.024C262.558,426.613,256.165,423.793,258.61,416.085z"/>
		</g>
		<g>
			<g>
				<path style="fill:#343057;" d="M240.019,400.075c0,0-2.402-2.425-3.017-2.917c-0.616-0.492-2.954,3.19-2.954,3.19
					s-2.574-2.966-3.165-3.237c-0.591-0.271-3.631,3.153-3.631,3.153s-1.688-2.055-1.651-4.752c0,0-2.806,3.51-3.495,4.877
					c-0.689,1.367,3.646,5.539,4.151,5.539c0.505,0,12.792,0.033,12.94-0.152C239.344,405.591,240.019,400.075,240.019,400.075z"/>
				<path style="fill:#605A8F;" d="M225.6,395.512c0,0-2.03,2.919-8.493,5.322c-6.463,2.403-12.259,10.789-9.338,20.391
					c2.921,9.602,17.846,18.203,30.736,16.093c12.89-2.11,18.499-15.187,15.542-23.607c-2.958-8.42-12.193-11.261-13.45-14.991
					c0,0-2.302,1.49-3.237,2.66c-0.935,1.17-2.118-1.391-3.658-2.621c0,0-2.77,1.823-3.717,2.882
					c-0.948,1.059-2.254-2.609-2.894-3.323c-0.64-0.714-0.862,0.825-2.843,1.663C222.266,400.82,225.6,395.512,225.6,395.512z"/>
			</g>
			<g>
				<path style="opacity:0.16;fill:#E0E6FF;" d="M213.169,407.182c0,0,2.614-3.426,6.126-3.512c3.513-0.085,6.339,2.786,5.225,6.812
					c-1.114,4.026-3.428,7.325-7.541,8.909C212.867,420.975,206.87,414.849,213.169,407.182z"/>
			</g>
		</g>
		<path style="opacity:0.45;fill:#343057;" d="M242.432,406.447c3.547,5.676,5.676,16.319-4.021,23.177
			c-8.441,5.97-22.971-0.065-26.593-1.729c5.998,6.472,16.924,11.021,26.687,9.423c12.89-2.11,18.499-15.187,15.542-23.607
			c-2.958-8.42-12.193-11.261-13.45-14.991C240.597,398.72,238.884,400.771,242.432,406.447z"/>
		<path style="opacity:0.45;fill:#343057;" d="M258.926,431.76c12.285,10.28,34.494,1.363,38.769-7.418
			c4.521-9.287,5.121-23.166-13.881-26.142c4.715,1.03,11.845,4.455,10.885,15.815C293.302,430.538,272.219,436.747,258.926,431.76z
			"/>
		<g>
			<path style="fill:#605A8F;" d="M151.256,76.137c0,0-19.336-0.569-22.748,15.924c-3.412,16.493,14.786,26.161,35.829,15.924
				C185.379,97.748,178.554,71.587,151.256,76.137z"/>
			<path style="fill:#343057;" d="M149.835,77.748c0,0,1.137-5.024-0.19-7.014c-1.327-1.991,0.853-2.559,1.801-2.464
				c0.948,0.095,1.422,5.498,0.474,7.488C150.972,77.748,150.783,79.17,149.835,77.748z"/>
			<path style="opacity:0.45;fill:#343057;" d="M169.427,78.655c3.1,4.687,4.158,18.111-9.072,27.055
				c-12.754,8.622-27.115,1.079-28.587,0.264c6.006,6.844,18.663,8.775,32.568,2.011C179.383,100.665,180.174,85.209,169.427,78.655
				z"/>
			<path style="opacity:0.16;fill:#E0E6FF;" d="M132.577,88.879c0,0,1.321-3.417,4.168-4.319c2.847-0.902,5.835,0.771,5.88,4.322
				c0.045,3.551-1.062,6.792-4.043,9.06C135.601,100.21,129.254,96.63,132.577,88.879z"/>
		</g>
		<path style="opacity:0.18;fill:#CC562A;" d="M285.475,330.057c0,1.567-1.906,2.838-4.257,2.838c-2.351,0-4.257-1.271-4.257-2.838
			c0-1.567,1.906-2.838,4.257-2.838C283.569,327.219,285.475,328.49,285.475,330.057z"/>
		<ellipse style="opacity:0.18;fill:#CC562A;" cx="118.032" cy="305.934" rx="4.257" ry="2.838"/>
		<path style="opacity:0.34;fill:#CC562A;" d="M243.851,392.021c0,1.567-1.906,2.838-4.257,2.838c-2.351,0-4.257-1.271-4.257-2.838
			c0-1.567,1.906-2.838,4.257-2.838C241.945,389.182,243.851,390.453,243.851,392.021z"/>
		<ellipse style="opacity:0.28;fill:#CC562A;" cx="362.574" cy="319.178" rx="4.257" ry="2.838"/>
		<path style="opacity:0.38;fill:#CC562A;" d="M269.393,273.297c0,1.567-1.906,2.838-4.257,2.838c-2.351,0-4.257-1.271-4.257-2.838
			c0-1.567,1.906-2.838,4.257-2.838C267.487,270.459,269.393,271.73,269.393,273.297z"/>
		<path style="opacity:0.38;fill:#CC562A;" d="M245.27,197.144c0,1.567-1.906,2.838-4.257,2.838c-2.351,0-4.257-1.271-4.257-2.838
			s1.906-2.838,4.257-2.838C243.364,194.306,245.27,195.576,245.27,197.144z"/>
		<path style="opacity:0.38;fill:#CC562A;" d="M356.425,188.63c0,1.567-1.906,2.838-4.257,2.838s-4.257-1.271-4.257-2.838
			c0-1.567,1.906-2.838,4.257-2.838S356.425,187.062,356.425,188.63z"/>
		<ellipse style="opacity:0.21;fill:#CC562A;" cx="122.289" cy="130.923" rx="4.257" ry="2.838"/>
		<path style="opacity:0.21;fill:#CC562A;" d="M351.695,151.735c0,1.567-1.906,2.838-4.257,2.838c-2.351,0-4.257-1.271-4.257-2.838
			s1.906-2.838,4.257-2.838C349.789,148.897,351.695,150.168,351.695,151.735z"/>
		<path style="opacity:0.41;fill:#CC562A;" d="M394.266,145.113c0,1.567-1.906,2.838-4.257,2.838c-2.351,0-4.257-1.271-4.257-2.838
			s1.906-2.838,4.257-2.838C392.36,142.275,394.266,143.546,394.266,145.113z"/>
		<path style="opacity:0.21;fill:#CC562A;" d="M166.988,123.592c0,0.914-1.112,1.656-2.483,1.656c-1.372,0-2.483-0.741-2.483-1.656
			c0-0.914,1.112-1.655,2.483-1.655C165.876,121.936,166.988,122.677,166.988,123.592z"/>
		<path style="opacity:0.21;fill:#CC562A;" d="M195.723,100.415c0,0.914-1.112,1.655-2.483,1.655c-1.371,0-2.483-0.741-2.483-1.655
			c0-0.914,1.112-1.656,2.483-1.656C194.611,98.759,195.723,99.5,195.723,100.415z"/>
		<path style="opacity:0.21;fill:#CC562A;" d="M127.611,115.314c0,0.914-1.112,1.656-2.483,1.656c-1.371,0-2.483-0.741-2.483-1.656
			c0-0.914,1.112-1.656,2.483-1.656C126.499,113.659,127.611,114.4,127.611,115.314z"/>
		<path style="opacity:0.21;fill:#CC562A;" d="M146.058,119.571c0,0.914-1.112,1.656-2.483,1.656c-1.371,0-2.483-0.741-2.483-1.656
			c0-0.914,1.112-1.655,2.483-1.655C144.946,117.916,146.058,118.657,146.058,119.571z"/>
		<path style="opacity:0.21;fill:#CC562A;" d="M204.237,94.975c0,0.914-1.112,1.656-2.483,1.656c-1.372,0-2.483-0.741-2.483-1.656
			c0-0.914,1.112-1.656,2.483-1.656C203.125,93.32,204.237,94.061,204.237,94.975z"/>
		<ellipse style="opacity:0.38;fill:#CC562A;" cx="224.931" cy="215.591" rx="4.257" ry="2.838"/>
		<path style="opacity:0.38;fill:#CC562A;" d="M375.819,225.997c0,1.567-1.906,2.838-4.257,2.838c-2.351,0-4.257-1.271-4.257-2.838
			c0-1.567,1.906-2.838,4.257-2.838C373.913,223.159,375.819,224.429,375.819,225.997z"/>
		<path style="opacity:0.38;fill:#CC562A;" d="M263.244,394.385c0,1.567-1.906,2.838-4.257,2.838c-2.351,0-4.257-1.271-4.257-2.838
			c0-1.567,1.906-2.838,4.257-2.838C261.338,391.547,263.244,392.818,263.244,394.385z"/>
		<path style="opacity:0.16;fill:#CC562A;" d="M287.367,348.977c0,1.567-1.906,2.838-4.257,2.838c-2.351,0-4.257-1.271-4.257-2.838
			c0-1.567,1.906-2.838,4.257-2.838C285.461,346.139,287.367,347.41,287.367,348.977z"/>
		<ellipse style="opacity:0.38;fill:#CC562A;" cx="355.952" cy="257.215" rx="4.257" ry="2.838"/>
		<path style="opacity:0.38;fill:#CC562A;" d="M352.168,226.943c0,0.784-0.953,1.419-2.128,1.419c-1.176,0-2.129-0.635-2.129-1.419
			c0-0.784,0.953-1.419,2.129-1.419C351.215,225.524,352.168,226.159,352.168,226.943z"/>
		<ellipse style="opacity:0.38;fill:#CC562A;" cx="272.231" cy="390.129" rx="2.128" ry="1.419"/>
		<path style="opacity:0.38;fill:#CC562A;" d="M240.776,211.334c0,0.784-0.953,1.419-2.129,1.419c-1.175,0-2.128-0.635-2.128-1.419
			c0-0.784,0.953-1.419,2.128-1.419C239.823,209.915,240.776,210.55,240.776,211.334z"/>
		<ellipse style="opacity:0.38;fill:#CC562A;" cx="342.708" cy="263.837" rx="2.128" ry="1.419"/>
		<ellipse style="opacity:0.38;fill:#CC562A;" cx="333.248" cy="262.418" rx="2.128" ry="1.419"/>
		<ellipse style="opacity:0.18;fill:#CC562A;" cx="272.231" cy="339.044" rx="2.128" ry="1.419"/>
		<ellipse style="opacity:0.18;fill:#CC562A;" cx="188.51" cy="348.031" rx="2.128" ry="1.419"/>
		<ellipse style="opacity:0.18;fill:#CC562A;" cx="135.533" cy="325.8" rx="2.128" ry="1.419"/>
		<ellipse style="opacity:0.18;fill:#CC562A;" cx="212.633" cy="393.913" rx="2.128" ry="1.419"/>
		<path style="opacity:0.18;fill:#CC562A;" d="M239.357,320.597c0,0.784-0.953,1.419-2.129,1.419c-1.176,0-2.129-0.635-2.129-1.419
			s0.953-1.419,2.129-1.419C238.404,319.178,239.357,319.814,239.357,320.597z"/>
		<ellipse style="opacity:0.18;fill:#CC562A;" cx="138.372" cy="311.137" rx="2.128" ry="1.419"/>
		<ellipse style="opacity:0.38;fill:#CC562A;" cx="288.786" cy="267.148" rx="2.128" ry="1.419"/>
		<path style="opacity:0.38;fill:#CC562A;" d="M284.293,391.074c0,0.784-0.953,1.419-2.129,1.419c-1.176,0-2.129-0.635-2.129-1.419
			s0.953-1.419,2.129-1.419C283.34,389.655,284.293,390.291,284.293,391.074z"/>
		<path style="opacity:0.22;fill:#CC562A;" d="M129.148,313.029c0,0.784-0.953,1.419-2.129,1.419c-1.175,0-2.128-0.635-2.128-1.419
			c0-0.784,0.953-1.419,2.128-1.419C128.195,311.61,129.148,312.246,129.148,313.029z"/>
		<ellipse style="opacity:0.22;fill:#CC562A;" cx="118.505" cy="348.504" rx="2.128" ry="1.419"/>
		<ellipse style="opacity:0.18;fill:#CC562A;" cx="263.717" cy="328.165" rx="2.128" ry="1.419"/>
		<ellipse style="opacity:0.18;fill:#CC562A;" cx="306.997" cy="344.247" rx="2.128" ry="1.419"/>
		<ellipse style="opacity:0.38;fill:#CC562A;" cx="279.799" cy="197.144" rx="2.128" ry="1.419"/>
		<path style="opacity:0.38;fill:#CC562A;" d="M372.035,183.427c0,0.784-0.953,1.419-2.129,1.419c-1.176,0-2.129-0.635-2.129-1.419
			c0-0.784,0.953-1.419,2.129-1.419C371.082,182.008,372.035,182.643,372.035,183.427z"/>
		<ellipse style="opacity:0.38;fill:#CC562A;" cx="341.526" cy="187.211" rx="2.128" ry="1.419"/>
		<ellipse style="opacity:0.21;fill:#CC562A;" cx="133.641" cy="125.72" rx="2.128" ry="1.419"/>
		<path style="opacity:0.21;fill:#CC562A;" d="M190.165,94.502c0,0.784-0.953,1.419-2.128,1.419c-1.176,0-2.129-0.635-2.129-1.419
			c0-0.784,0.953-1.419,2.129-1.419C189.212,93.083,190.165,93.718,190.165,94.502z"/>
		<ellipse style="opacity:0.21;fill:#CC562A;" cx="359.736" cy="146.059" rx="2.128" ry="1.419"/>
		<ellipse style="opacity:0.38;fill:#CC562A;" cx="386.934" cy="211.334" rx="2.128" ry="1.419"/>
		<path style="opacity:0.38;fill:#CC562A;" d="M294.226,203.766c0,0.784-0.953,1.419-2.128,1.419c-1.176,0-2.129-0.635-2.129-1.419
			c0-0.784,0.953-1.419,2.129-1.419C293.273,202.347,294.226,202.982,294.226,203.766z"/>
		<ellipse style="opacity:0.38;fill:#CC562A;" cx="219.491" cy="205.185" rx="2.128" ry="1.419"/>
		<path style="opacity:0.21;fill:#CC562A;" d="M152.325,129.504c0,0.784-0.953,1.419-2.129,1.419c-1.176,0-2.129-0.635-2.129-1.419
			c0-0.784,0.953-1.419,2.129-1.419C151.372,128.085,152.325,128.721,152.325,129.504z"/>
	</g>
</g>
</svg>
